<?xml version="1.0" encoding="UTF-8"?>
<svg version="1.1" xmlns="http://www.w3.org/2000/svg" width="50" height="50">
<path d="M0 0 C0.85142578 -0.02449219 1.70285156 -0.04898438 2.58007812 -0.07421875 C8.85062645 -0.1028732 13.75557548 1.19530105 19.1875 4.375 C22.10482626 7.29232626 21.59389743 10.34489967 21.625 14.25 C21.65787109 14.97058594 21.69074219 15.69117188 21.72460938 16.43359375 C21.76221259 20.14605625 21.55655733 21.96642473 19.03515625 24.7578125 C12.81059428 28.29274893 7.38531655 28.73952903 0.375 28.75 C-0.90213867 28.78673828 -0.90213867 28.78673828 -2.20507812 28.82421875 C-8.47562645 28.8528732 -13.38057548 27.55469895 -18.8125 24.375 C-21.72982626 21.45767374 -21.21889743 18.40510033 -21.25 14.5 C-21.28287109 13.77941406 -21.31574219 13.05882812 -21.34960938 12.31640625 C-21.38721259 8.60394375 -21.18155733 6.78357527 -18.66015625 3.9921875 C-12.43559428 0.45725107 -7.01031655 0.01047097 0 0 Z M-8.8125 18.375 C-8.8125 18.705 -8.8125 19.035 -8.8125 19.375 C-2.8725 19.375 3.0675 19.375 9.1875 19.375 C9.1875 19.045 9.1875 18.715 9.1875 18.375 C3.2475 18.375 -2.6925 18.375 -8.8125 18.375 Z " fill="#FAB004" transform="translate(24.8125,-0.375)"/>
<path d="M0 0 C1.60875 0.928125 1.60875 0.928125 3.25 1.875 C11.81645537 6.12045672 21.68907564 6.97336009 31 5 C34.1320938 3.88740549 37.06238745 2.54950992 40 1 C40.66 0.67 41.32 0.34 42 0 C42.29350875 3.05249101 42.41545701 5.95506823 42 9 C38.52080575 12.99084047 34.02859006 14.6944023 28.78613281 15.22338867 C26.25015869 15.34081375 23.72610494 15.37120821 21.1875 15.375 C19.91036133 15.41173828 19.91036133 15.41173828 18.60742188 15.44921875 C12.33687355 15.4778732 7.43192452 14.17969895 2 11 C0 9 0 9 -0.1953125 6.8359375 C-0.17210937 6.02382813 -0.14890625 5.21171875 -0.125 4.375 C-0.10695312 3.55773437 -0.08890625 2.74046875 -0.0703125 1.8984375 C-0.04710937 1.27195312 -0.02390625 0.64546875 0 0 Z " fill="#FAB004" transform="translate(4,23)"/>
<path d="M0 0 C1.051875 0.433125 1.051875 0.433125 2.125 0.875 C3.07375 1.24625 4.0225 1.6175 5 2 C5.86625 2.350625 6.7325 2.70125 7.625 3.0625 C17.62778046 5.84105013 28.07492668 5.65606735 37.625 1.375 C38.40875 0.92125 39.1925 0.4675 40 0 C40.66 0 41.32 0 42 0 C42.23803646 2.85643751 42.42383741 5.19945408 42 8 C38.45813322 11.95855698 34.05022242 13.69255588 28.78613281 14.22314453 C26.25014444 14.34082499 23.72613027 14.37120817 21.1875 14.375 C19.91036133 14.41173828 19.91036133 14.41173828 18.60742188 14.44921875 C12.33687355 14.4778732 7.43192452 13.17969895 2 10 C0 8 0 8 -0.1953125 6.0546875 C-0.13020833 4.03645833 -0.06510417 2.01822917 0 0 Z " fill="#FAAF04" transform="translate(4,34)"/>
</svg>
